<?xml version="1.0" standalone="no"?>
<!DOCTYPE svg PUBLIC "-//W3C//DTD SVG 20010904//EN"
 "http://www.w3.org/TR/2001/REC-SVG-20010904/DTD/svg10.dtd">
<svg version="1.0" xmlns="http://www.w3.org/2000/svg"
 width="367.000000pt" height="120.000000pt" viewBox="0 0 367.000000 120.000000"
 preserveAspectRatio="xMidYMid meet">

<g transform="translate(0.000000,120.000000) scale(0.100000,-0.100000)"
fill="#000000" stroke="none">
<path d="M1631 1044 c-19 -24 -24 -25 -63 -17 -53 11 -101 2 -141 -27 l-30
-23 -19 27 c-18 23 -26 26 -84 26 -63 0 -65 -1 -107 -45 -24 -25 -54 -67 -67
-95 l-23 -50 -32 20 c-41 26 -85 25 -137 -1 l-40 -21 -29 28 c-15 15 -26 31
-23 36 7 12 -51 68 -71 68 -9 0 -30 -15 -46 -32 -16 -18 -44 -47 -61 -64 l-31
-32 -32 19 c-23 14 -49 19 -86 18 -30 -1 -66 2 -81 6 -27 7 -35 2 -72 -50 -24
-33 -28 -11 -10 64 18 83 13 117 -21 133 -45 20 -74 3 -105 -65 -32 -68 -80
-274 -80 -341 0 -64 29 -96 85 -96 48 0 65 17 65 64 0 13 5 37 12 53 11 27 12
25 18 -36 10 -94 55 -115 131 -60 l29 20 26 -20 c31 -25 71 -27 120 -6 32 13
38 13 57 0 27 -19 73 -19 124 -1 34 12 43 12 67 -1 37 -19 158 -14 204 9 31
16 35 16 65 -2 39 -24 112 -26 166 -4 36 14 42 14 72 -1 25 -13 46 -16 93 -11
67 7 67 7 211 0 55 -3 125 -6 155 -7 l55 -2 1 -35 c2 -71 4 -81 29 -105 48
-49 98 -21 109 61 13 88 11 86 72 78 32 -4 80 -1 119 7 50 10 68 10 77 1 25
-25 101 0 113 38 6 20 35 28 35 10 0 -5 9 -19 20 -30 23 -23 75 -26 115 -8 20
9 34 9 63 -2 41 -15 143 -16 169 -1 12 6 29 4 55 -6 24 -10 49 -13 66 -8 23 6
118 13 202 14 14 0 58 -2 99 -5 98 -8 147 11 190 71 41 57 40 103 -2 123 -25
12 -27 18 -22 49 4 30 1 39 -29 69 -26 26 -42 34 -70 34 -41 0 -125 -36 -133
-57 -7 -19 -30 -16 -45 6 -18 26 -51 34 -82 20 -24 -11 -29 -9 -57 19 -37 38
-82 42 -115 11 -18 -17 -26 -19 -42 -10 -48 26 -141 1 -184 -50 -22 -25 -32
-24 -48 7 -16 28 -58 54 -90 54 -21 0 -23 6 -20 53 3 45 -18 94 -43 101 -56
14 -75 -9 -143 -174 -17 -42 -24 -51 -29 -37 -13 31 -80 58 -143 56 -31 -1
-70 2 -85 6 -22 6 -33 3 -53 -16 -24 -22 -25 -22 -53 -6 -43 25 -106 22 -158
-8 -23 -14 -43 -29 -44 -33 -13 -116 -39 -126 -43 -17 -3 67 -1 71 27 95 28
25 33 42 28 108 -2 23 -49 62 -75 62 -15 0 -33 -11 -45 -26z m83 -26 c24 -34
20 -73 -10 -97 -33 -26 -50 -26 -64 -2 -14 27 -13 57 5 91 19 36 48 39 69 8z
m-1386 -40 c2 -15 -8 -73 -21 -130 -30 -125 -42 -202 -38 -245 2 -23 -3 -34
-18 -43 -29 -15 -71 -2 -82 27 -18 49 52 361 92 410 7 8 24 13 38 11 20 -2 27
-9 29 -30z m1022 10 c11 -12 20 -31 20 -42 0 -26 -33 -81 -69 -116 -69 -68
-101 -112 -101 -138 0 -37 10 -48 44 -54 38 -8 86 37 86 79 0 86 64 229 118
267 48 33 116 36 132 7 25 -48 -3 -109 -100 -216 -44 -49 -51 -61 -48 -93 2
-29 8 -37 30 -43 53 -14 108 41 108 109 1 43 36 112 58 112 44 0 50 -42 26
-182 -8 -50 14 -51 50 -3 15 19 31 35 37 35 8 0 43 -48 51 -72 2 -3 17 -10 33
-14 l30 -7 -41 44 c-75 79 -80 105 -30 155 29 29 41 34 80 34 33 0 52 -6 66
-20 26 -26 25 -49 -5 -89 -22 -31 -23 -36 -10 -55 22 -30 19 -82 -6 -104 -25
-24 -83 -33 -140 -20 -51 11 -57 11 -126 2 -50 -6 -53 -5 -64 20 l-12 26 -23
-21 c-43 -41 -172 -35 -188 8 -5 12 -12 10 -38 -12 -29 -24 -38 -27 -95 -23
-48 3 -68 9 -87 27 l-24 23 -29 -21 c-33 -24 -115 -42 -158 -34 -16 3 -41 14
-55 23 -24 16 -27 16 -55 -1 -17 -11 -49 -19 -73 -19 -35 0 -44 4 -54 25 l-11
24 -29 -21 c-40 -28 -109 -36 -127 -14 -14 17 -11 131 4 168 13 31 -24 34 -53
4 -24 -24 -27 -34 -27 -97 0 -78 -16 -103 -65 -97 -25 3 -25 3 -25 108 1 86 5
114 22 153 23 50 54 63 77 32 9 -13 16 -13 42 -4 18 7 46 9 68 5 29 -6 40 -14
53 -41 15 -30 15 -39 0 -96 -9 -35 -14 -66 -11 -68 11 -12 56 50 65 89 8 35 7
46 -7 61 -19 22 -13 46 16 57 11 4 28 23 38 42 27 49 46 58 72 35 16 -14 20
-27 16 -47 -4 -22 -1 -27 17 -30 46 -6 21 -68 -27 -68 -19 0 -25 -7 -30 -37
-11 -70 -8 -103 12 -103 28 1 58 32 71 77 21 77 86 133 153 133 49 0 78 -24
78 -64 0 -38 -15 -54 -88 -90 -29 -15 -52 -32 -49 -39 2 -7 26 -13 53 -15 39
-2 55 2 78 21 26 21 30 33 37 95 9 82 42 152 99 211 46 47 106 55 140 19z
m1109 -12 c16 -33 4 -81 -31 -125 -23 -30 -17 -38 14 -17 32 23 93 21 118 -4
23 -23 27 -81 8 -141 -6 -22 -8 -42 -5 -46 12 -11 46 28 58 66 19 60 49 101
90 121 52 27 103 26 123 -2 35 -49 11 -97 -65 -129 -34 -15 -49 -27 -49 -40 0
-18 8 -21 60 -21 34 0 38 1 69 28 40 33 57 92 40 139 -15 42 -1 65 42 65 20 0
33 -8 46 -30 9 -16 20 -30 23 -30 3 0 22 4 43 9 29 7 41 6 52 -6 19 -18 19
-76 0 -128 -8 -21 -12 -41 -9 -44 13 -13 40 20 55 66 23 70 46 101 91 124 54
28 105 22 132 -14 19 -26 19 -30 6 -55 -9 -15 -43 -41 -77 -60 -76 -40 -77
-62 -2 -62 39 0 55 5 82 30 42 37 57 38 57 5 0 -16 -15 -42 -38 -67 -37 -40
-41 -41 -115 -46 -61 -4 -82 -1 -102 12 -23 15 -28 15 -47 1 -13 -8 -39 -15
-60 -15 -65 0 -83 59 -52 168 5 16 2 22 -10 22 -23 0 -36 -41 -36 -115 0 -55
-3 -66 -21 -75 -31 -17 -63 -9 -67 18 -4 26 -10 27 -34 5 -13 -12 -42 -18
-101 -21 -72 -4 -84 -2 -100 16 -17 19 -18 19 -55 1 -41 -21 -97 -25 -108 -7
-4 7 -7 54 -6 105 2 75 -1 93 -12 93 -37 0 -76 -77 -76 -151 0 -38 -4 -51 -19
-59 -31 -16 -51 -12 -63 15 l-11 25 -32 -20 c-42 -26 -141 -36 -175 -18 -33
18 -35 62 -3 66 29 4 61 45 69 89 8 42 -5 58 -41 49 -21 -5 -33 -21 -54 -69
-27 -58 -34 -91 -50 -229 -4 -32 -12 -63 -18 -69 -31 -31 -80 32 -69 88 3 15
8 59 12 98 6 75 35 177 65 238 22 41 51 49 71 18 11 -18 14 -18 44 -4 43 21
97 10 124 -24 35 -45 23 -113 -32 -170 l-32 -33 33 13 c37 13 105 83 96 97
-14 22 58 230 94 273 20 24 43 18 60 -17z m-915 -229 c-10 -67 -84 -121 -84
-61 0 30 66 118 81 109 5 -4 6 -25 3 -48z m-241 -20 c-9 -59 -73 -90 -73 -37
0 24 60 94 71 83 5 -5 6 -26 2 -46z m-479 24 c8 -13 -11 -61 -24 -61 -11 0
-14 53 -3 63 9 10 21 9 27 -2z m1294 -51 c-11 -34 -24 -45 -33 -30 -8 12 20
60 35 60 5 0 5 -13 -2 -30z"/>
<path d="M1237 881 c-37 -68 -34 -71 13 -12 44 55 46 61 27 61 -8 0 -26 -22
-40 -49z"/>
<path d="M1479 914 c-13 -16 -41 -86 -36 -91 3 -3 67 94 67 101 0 12 -18 6
-31 -10z"/>
<path d="M1840 783 c0 -5 5 -15 10 -23 9 -13 11 -13 19 0 5 8 7 18 5 22 -6 10
-34 11 -34 1z"/>
<path d="M960 765 c-7 -9 -10 -18 -7 -22 8 -7 37 15 37 28 0 14 -16 11 -30 -6z"/>
<path d="M2729 758 c-10 -18 -9 -20 6 -15 9 4 19 7 21 7 2 0 4 7 4 15 0 22
-18 18 -31 -7z"/>
<path d="M3250 760 c-6 -11 -8 -20 -5 -20 14 0 45 21 45 30 0 18 -29 10 -40
-10z"/>
<path d="M1920 297 c-3 -3 -156 -8 -340 -11 -372 -6 -629 -20 -1020 -56 -178
-17 -223 -24 -227 -37 -6 -18 47 -19 182 -6 375 37 784 59 1410 74 443 11 521
10 810 -6 394 -23 437 -23 442 -8 8 23 -42 36 -151 39 -248 7 -1101 16 -1106
11z"/>
</g>
</svg>
